<?xml version="1.0" encoding="UTF-8"?>
<svg xmlns="http://www.w3.org/2000/svg" viewBox="-150 -150 300 300" width="300" height="300" role="img" aria-label="rex">
  <defs>
    <clipPath id="cast-rex-clip"><path d="M-106.41 32.64C-106.31 30.69 -106.01 28.87 -105.82 26.99C-105.62 25.10 -105.48 23.21 -105.23 21.33C-104.99 19.45 -104.64 17.58 -104.35 15.70C-104.05 13.83 -103.77 11.90 -103.47 10.07C-103.16 8.24 -102.83 6.50 -102.51 4.72C-102.19 2.94 -101.87 1.12 -101.55 -0.63C-101.23 -2.38 -100.92 -4.07 -100.60 -5.79C-100.28 -7.51 -99.96 -9.25 -99.65 -10.96C-99.33 -12.66 -99.02 -14.34 -98.70 -16.03C-98.39 -17.72 -98.07 -19.41 -97.76 -21.11C-97.45 -22.80 -97.13 -24.50 -96.82 -26.20C-96.50 -27.89 -96.19 -29.57 -95.87 -31.28C-95.55 -33.00 -95.22 -34.75 -94.90 -36.48C-94.58 -38.22 -94.26 -39.92 -93.93 -41.68C-93.59 -43.45 -93.24 -45.28 -92.89 -47.09C-92.54 -48.89 -92.22 -50.64 -91.85 -52.49C-91.47 -54.33 -91.04 -56.26 -90.63 -58.15C-90.22 -60.04 -89.89 -61.90 -89.41 -63.82C-88.94 -65.74 -88.33 -67.72 -87.79 -69.67C-87.25 -71.62 -86.78 -73.74 -86.18 -75.53C-85.57 -77.31 -84.83 -78.76 -84.15 -80.37C-83.48 -81.98 -82.61 -84.13 -82.13 -85.21C-81.66 -86.29 -81.96 -85.91 -81.31 -86.87C-80.66 -87.83 -79.27 -89.61 -78.25 -90.98C-77.24 -92.35 -75.93 -94.21 -75.20 -95.08C-74.47 -95.96 -74.68 -95.64 -73.85 -96.24C-73.02 -96.84 -71.42 -97.87 -70.20 -98.68C-68.99 -99.50 -67.35 -100.64 -66.55 -101.13C-65.75 -101.62 -66.44 -101.27 -65.40 -101.63C-64.37 -101.99 -62.03 -102.74 -60.35 -103.29C-58.66 -103.84 -56.32 -104.62 -55.29 -104.95C-54.27 -105.28 -54.64 -105.15 -54.19 -105.27C-53.74 -105.40 -53.21 -105.54 -52.60 -105.69C-51.98 -105.85 -51.28 -106.02 -50.49 -106.18C-49.69 -106.35 -48.81 -106.54 -47.83 -106.70C-46.84 -106.86 -45.76 -107.03 -44.57 -107.17C-43.38 -107.30 -42.09 -107.43 -40.69 -107.49C-39.29 -107.56 -37.77 -107.60 -36.16 -107.57C-34.54 -107.54 -32.81 -107.46 -30.98 -107.30C-29.16 -107.15 -26.89 -106.83 -25.22 -106.62C-23.55 -106.41 -22.38 -106.24 -20.95 -106.04C-19.53 -105.85 -18.25 -105.70 -16.68 -105.46C-15.12 -105.23 -13.34 -104.93 -11.59 -104.62C-9.84 -104.31 -8.16 -103.98 -6.20 -103.58C-4.25 -103.18 -1.98 -102.67 0.13 -102.21C2.24 -101.76 4.35 -101.31 6.46 -100.85C8.57 -100.40 10.95 -99.88 12.79 -99.49C14.63 -99.09 15.92 -98.81 17.49 -98.47C19.06 -98.13 20.63 -97.79 22.20 -97.44C23.76 -97.10 25.32 -96.76 26.87 -96.42C28.41 -96.07 29.95 -95.73 31.46 -95.40C32.98 -95.06 34.48 -94.73 35.95 -94.41C37.41 -94.08 38.87 -93.76 40.28 -93.44C41.69 -93.13 42.61 -92.92 44.42 -92.51C46.24 -92.10 48.91 -91.50 51.15 -90.99C53.39 -90.48 55.63 -89.97 57.88 -89.47C60.12 -88.96 62.84 -88.34 64.60 -87.94C66.36 -87.54 67.25 -87.35 68.45 -87.06C69.65 -86.76 70.28 -86.59 71.81 -86.17C73.33 -85.75 75.66 -85.08 77.59 -84.53C79.52 -83.99 81.85 -83.34 83.38 -82.90C84.92 -82.45 85.80 -82.24 86.80 -81.89C87.80 -81.53 88.14 -81.31 89.37 -80.76C90.61 -80.22 92.60 -79.33 94.22 -78.62C95.83 -77.90 97.80 -77.06 99.06 -76.48C100.33 -75.89 100.49 -76.06 101.81 -75.09C103.12 -74.12 105.24 -72.15 106.96 -70.68C108.68 -69.21 110.76 -68.01 112.12 -66.26C113.47 -64.52 114.11 -62.22 115.11 -60.20C116.11 -58.17 117.52 -55.92 118.10 -54.13C118.69 -52.34 118.45 -51.02 118.62 -49.46C118.79 -47.90 118.96 -46.35 119.14 -44.79C119.31 -43.23 119.63 -41.69 119.65 -40.12C119.67 -38.55 119.39 -36.97 119.26 -35.39C119.12 -33.81 118.99 -32.24 118.86 -30.66C118.73 -29.08 118.73 -27.85 118.47 -25.93C118.21 -24.01 117.70 -21.40 117.32 -19.14C116.93 -16.88 116.58 -14.55 116.17 -12.35C115.76 -10.15 115.30 -8.06 114.87 -5.91C114.44 -3.77 114.00 -1.58 113.57 0.52C113.14 2.63 112.70 4.64 112.27 6.70C111.84 8.76 111.40 10.84 110.97 12.88C110.54 14.92 110.12 16.91 109.69 18.92C109.26 20.93 108.84 22.95 108.41 24.96C107.98 26.97 107.56 28.98 107.13 30.99C106.71 32.99 106.29 34.99 105.86 37.01C105.43 39.03 104.99 41.09 104.55 43.13C104.12 45.17 103.70 47.18 103.25 49.25C102.79 51.32 102.31 53.46 101.84 55.56C101.37 57.67 100.95 59.73 100.44 61.87C99.93 64.01 99.33 66.22 98.77 68.39C98.22 70.57 97.76 72.74 97.11 74.92C96.45 77.09 95.59 79.26 94.83 81.43C94.07 83.59 93.51 85.88 92.55 87.93C91.60 89.99 90.26 91.80 89.11 93.74C87.96 95.67 87.08 97.90 85.67 99.54C84.26 101.18 82.32 102.21 80.64 103.55C78.96 104.88 77.00 106.62 75.61 107.56C74.22 108.50 73.89 108.67 72.30 109.18C70.71 109.70 68.14 110.15 66.05 110.63C63.97 111.11 61.57 111.78 59.81 112.08C58.05 112.38 57.14 112.42 55.51 112.44C53.87 112.47 51.83 112.30 49.99 112.23C48.15 112.16 46.32 112.09 44.48 112.02C42.64 111.95 40.69 111.91 38.96 111.81C37.23 111.71 36.06 111.62 34.11 111.41C32.16 111.19 29.55 110.82 27.27 110.52C24.99 110.22 22.70 109.93 20.42 109.63C18.14 109.34 15.86 109.04 13.58 108.75C11.30 108.45 9.01 108.16 6.73 107.86C4.45 107.57 1.96 107.24 -0.11 106.97C-2.18 106.70 -3.80 106.49 -5.68 106.24C-7.56 105.99 -9.32 105.75 -11.39 105.47C-13.46 105.18 -15.86 104.85 -18.10 104.54C-20.34 104.23 -22.58 103.92 -24.82 103.61C-27.05 103.30 -29.29 102.99 -31.53 102.68C-33.77 102.37 -36.01 102.06 -38.25 101.75C-40.48 101.44 -42.70 101.18 -44.96 100.83C-47.22 100.47 -49.60 100.09 -51.83 99.65C-54.06 99.21 -56.43 98.65 -58.32 98.19C-60.22 97.72 -61.57 97.29 -63.19 96.84C-64.81 96.40 -66.43 95.95 -68.06 95.50C-69.68 95.05 -71.07 94.82 -72.92 94.16C-74.77 93.50 -77.26 92.50 -79.14 91.54C-81.02 90.58 -82.71 89.51 -84.22 88.42C-85.73 87.34 -86.89 86.26 -88.21 85.04C-89.52 83.83 -90.87 82.51 -92.11 81.14C-93.35 79.77 -94.65 78.24 -95.64 76.82C-96.63 75.40 -97.36 73.94 -98.04 72.60C-98.72 71.25 -99.23 69.95 -99.70 68.75C-100.18 67.56 -100.44 66.75 -100.89 65.41C-101.35 64.07 -101.92 62.28 -102.43 60.72C-102.95 59.15 -103.52 57.75 -103.97 56.02C-104.42 54.30 -104.75 52.25 -105.14 50.36C-105.53 48.47 -106.11 46.64 -106.31 44.69C-106.52 42.74 -106.34 40.67 -106.36 38.67C-106.37 36.66 -106.50 34.59 -106.41 32.64Z"/></clipPath>
    <radialGradient id="cast-rex-gloss" cx="35%" cy="30%" r="65%">
      <stop offset="0%" stop-color="#ffffff" stop-opacity="0.5"/>
      <stop offset="55%" stop-color="#ffffff" stop-opacity="0.1"/>
      <stop offset="100%" stop-color="#ffffff" stop-opacity="0"/>
    </radialGradient>
  </defs>
  <path d="M-106.41 32.64C-106.31 30.69 -106.01 28.87 -105.82 26.99C-105.62 25.10 -105.48 23.21 -105.23 21.33C-104.99 19.45 -104.64 17.58 -104.35 15.70C-104.05 13.83 -103.77 11.90 -103.47 10.07C-103.16 8.24 -102.83 6.50 -102.51 4.72C-102.19 2.94 -101.87 1.12 -101.55 -0.63C-101.23 -2.38 -100.92 -4.07 -100.60 -5.79C-100.28 -7.51 -99.96 -9.25 -99.65 -10.96C-99.33 -12.66 -99.02 -14.34 -98.70 -16.03C-98.39 -17.72 -98.07 -19.41 -97.76 -21.11C-97.45 -22.80 -97.13 -24.50 -96.82 -26.20C-96.50 -27.89 -96.19 -29.57 -95.87 -31.28C-95.55 -33.00 -95.22 -34.75 -94.90 -36.48C-94.58 -38.22 -94.26 -39.92 -93.93 -41.68C-93.59 -43.45 -93.24 -45.28 -92.89 -47.09C-92.54 -48.89 -92.22 -50.64 -91.85 -52.49C-91.47 -54.33 -91.04 -56.26 -90.63 -58.15C-90.22 -60.04 -89.89 -61.90 -89.41 -63.82C-88.94 -65.74 -88.33 -67.72 -87.79 -69.67C-87.25 -71.62 -86.78 -73.74 -86.18 -75.53C-85.57 -77.31 -84.83 -78.76 -84.15 -80.37C-83.48 -81.98 -82.61 -84.13 -82.13 -85.21C-81.66 -86.29 -81.96 -85.91 -81.31 -86.87C-80.66 -87.83 -79.27 -89.61 -78.25 -90.98C-77.24 -92.35 -75.93 -94.21 -75.20 -95.08C-74.47 -95.96 -74.68 -95.64 -73.85 -96.24C-73.02 -96.84 -71.42 -97.87 -70.20 -98.68C-68.99 -99.50 -67.35 -100.64 -66.55 -101.13C-65.75 -101.62 -66.44 -101.27 -65.40 -101.63C-64.37 -101.99 -62.03 -102.74 -60.35 -103.29C-58.66 -103.84 -56.32 -104.62 -55.29 -104.95C-54.27 -105.28 -54.64 -105.15 -54.19 -105.27C-53.74 -105.40 -53.21 -105.54 -52.60 -105.69C-51.98 -105.85 -51.28 -106.02 -50.49 -106.18C-49.69 -106.35 -48.81 -106.54 -47.83 -106.70C-46.84 -106.86 -45.76 -107.03 -44.57 -107.17C-43.38 -107.30 -42.09 -107.43 -40.69 -107.49C-39.29 -107.56 -37.77 -107.60 -36.16 -107.57C-34.54 -107.54 -32.81 -107.46 -30.98 -107.30C-29.16 -107.15 -26.89 -106.83 -25.22 -106.62C-23.55 -106.41 -22.38 -106.24 -20.95 -106.04C-19.53 -105.85 -18.25 -105.70 -16.68 -105.46C-15.12 -105.23 -13.34 -104.93 -11.59 -104.62C-9.84 -104.31 -8.16 -103.98 -6.20 -103.58C-4.25 -103.18 -1.98 -102.67 0.13 -102.21C2.24 -101.76 4.35 -101.31 6.46 -100.85C8.57 -100.40 10.95 -99.88 12.79 -99.49C14.63 -99.09 15.92 -98.81 17.49 -98.47C19.06 -98.13 20.63 -97.79 22.20 -97.44C23.76 -97.10 25.32 -96.76 26.87 -96.42C28.41 -96.07 29.95 -95.73 31.46 -95.40C32.98 -95.06 34.48 -94.73 35.95 -94.41C37.41 -94.08 38.87 -93.76 40.28 -93.44C41.69 -93.13 42.61 -92.92 44.42 -92.51C46.24 -92.10 48.91 -91.50 51.15 -90.99C53.39 -90.48 55.63 -89.97 57.88 -89.47C60.12 -88.96 62.84 -88.34 64.60 -87.94C66.36 -87.54 67.25 -87.35 68.45 -87.06C69.65 -86.76 70.28 -86.59 71.81 -86.17C73.33 -85.75 75.66 -85.08 77.59 -84.53C79.52 -83.99 81.85 -83.34 83.38 -82.90C84.92 -82.45 85.80 -82.24 86.80 -81.89C87.80 -81.53 88.14 -81.31 89.37 -80.76C90.61 -80.22 92.60 -79.33 94.22 -78.62C95.83 -77.90 97.80 -77.06 99.06 -76.48C100.33 -75.89 100.49 -76.06 101.81 -75.09C103.12 -74.12 105.24 -72.15 106.96 -70.68C108.68 -69.21 110.76 -68.01 112.12 -66.26C113.47 -64.52 114.11 -62.22 115.11 -60.20C116.11 -58.17 117.52 -55.92 118.10 -54.13C118.69 -52.34 118.45 -51.02 118.62 -49.46C118.79 -47.90 118.96 -46.35 119.14 -44.79C119.31 -43.23 119.63 -41.69 119.65 -40.12C119.67 -38.55 119.39 -36.97 119.26 -35.39C119.12 -33.81 118.99 -32.24 118.86 -30.66C118.73 -29.08 118.73 -27.85 118.47 -25.93C118.21 -24.01 117.70 -21.40 117.32 -19.14C116.93 -16.88 116.58 -14.55 116.17 -12.35C115.76 -10.15 115.30 -8.06 114.87 -5.91C114.44 -3.77 114.00 -1.58 113.57 0.52C113.14 2.63 112.70 4.64 112.27 6.70C111.84 8.76 111.40 10.84 110.97 12.88C110.54 14.92 110.12 16.91 109.69 18.92C109.26 20.93 108.84 22.95 108.41 24.96C107.98 26.97 107.56 28.98 107.13 30.99C106.71 32.99 106.29 34.99 105.86 37.01C105.43 39.03 104.99 41.09 104.55 43.13C104.12 45.17 103.70 47.18 103.25 49.25C102.79 51.32 102.31 53.46 101.84 55.56C101.37 57.67 100.95 59.73 100.44 61.87C99.93 64.01 99.33 66.22 98.77 68.39C98.22 70.57 97.76 72.74 97.11 74.92C96.45 77.09 95.59 79.26 94.83 81.43C94.07 83.59 93.51 85.88 92.55 87.93C91.60 89.99 90.26 91.80 89.11 93.74C87.96 95.67 87.08 97.90 85.67 99.54C84.26 101.18 82.32 102.21 80.64 103.55C78.96 104.88 77.00 106.62 75.61 107.56C74.22 108.50 73.89 108.67 72.30 109.18C70.71 109.70 68.14 110.15 66.05 110.63C63.97 111.11 61.57 111.78 59.81 112.08C58.05 112.38 57.14 112.42 55.51 112.44C53.87 112.47 51.83 112.30 49.99 112.23C48.15 112.16 46.32 112.09 44.48 112.02C42.64 111.95 40.69 111.91 38.96 111.81C37.23 111.71 36.06 111.62 34.11 111.41C32.16 111.19 29.55 110.82 27.27 110.52C24.99 110.22 22.70 109.93 20.42 109.63C18.14 109.34 15.86 109.04 13.58 108.75C11.30 108.45 9.01 108.16 6.73 107.86C4.45 107.57 1.96 107.24 -0.11 106.97C-2.18 106.70 -3.80 106.49 -5.68 106.24C-7.56 105.99 -9.32 105.75 -11.39 105.47C-13.46 105.18 -15.86 104.85 -18.10 104.54C-20.34 104.23 -22.58 103.92 -24.82 103.61C-27.05 103.30 -29.29 102.99 -31.53 102.68C-33.77 102.37 -36.01 102.06 -38.25 101.75C-40.48 101.44 -42.70 101.18 -44.96 100.83C-47.22 100.47 -49.60 100.09 -51.83 99.65C-54.06 99.21 -56.43 98.65 -58.32 98.19C-60.22 97.72 -61.57 97.29 -63.19 96.84C-64.81 96.40 -66.43 95.95 -68.06 95.50C-69.68 95.05 -71.07 94.82 -72.92 94.16C-74.77 93.50 -77.26 92.50 -79.14 91.54C-81.02 90.58 -82.71 89.51 -84.22 88.42C-85.73 87.34 -86.89 86.26 -88.21 85.04C-89.52 83.83 -90.87 82.51 -92.11 81.14C-93.35 79.77 -94.65 78.24 -95.64 76.82C-96.63 75.40 -97.36 73.94 -98.04 72.60C-98.72 71.25 -99.23 69.95 -99.70 68.75C-100.18 67.56 -100.44 66.75 -100.89 65.41C-101.35 64.07 -101.92 62.28 -102.43 60.72C-102.95 59.15 -103.52 57.75 -103.97 56.02C-104.42 54.30 -104.75 52.25 -105.14 50.36C-105.53 48.47 -106.11 46.64 -106.31 44.69C-106.52 42.74 -106.34 40.67 -106.36 38.67C-106.37 36.66 -106.50 34.59 -106.41 32.64Z" fill="#6bcf8e"/><ellipse cx="-42" cy="-58" rx="54" ry="42" fill="url(#cast-rex-gloss)" pointer-events="none"/><g clip-path="url(#cast-rex-clip)"><path d="M-0.26 -15.64L-0.26 -15.64L-0.26 -15.64L1.05 -15.31L2.31 -14.84L3.51 -14.21L4.63 -13.45L5.65 -12.56L6.57 -11.55L7.36 -10.44L8.03 -9.24L8.57 -7.95L8.96 -6.61L9.20 -5.22L9.29 -3.81L9.23 -2.39L9.01 -0.97L8.67 0.68L8.32 2.34L7.99 4.00L7.65 5.66L7.32 7.32L6.98 8.98L6.65 10.64L6.33 12.30L6.00 13.96L5.68 15.61L5.36 17.27L5.05 18.92L4.71 20.31L4.22 21.65L3.60 22.93L2.84 24.13L1.96 25.24L0.98 26.25L-0.10 27.13L-1.27 27.89L-2.50 28.52L-3.79 29.00L-5.12 29.32L-6.46 29.49L-7.82 29.51L-9.16 29.37L-9.16 29.37L-9.16 29.37L-10.48 29.07L-11.75 28.62L-12.97 28.02L-14.11 27.28L-15.17 26.40L-16.12 25.41L-16.96 24.31L-17.68 23.11L-18.26 21.83L-18.71 20.48L-19.00 19.09L-19.14 17.67L-19.13 16.23L-18.96 14.81L-18.66 13.13L-18.36 11.45L-18.06 9.78L-17.74 8.10L-17.42 6.42L-17.10 4.75L-16.77 3.07L-16.43 1.39L-16.08 -0.28L-15.73 -1.95L-15.38 -3.63L-15.02 -5.30L-14.63 -6.70L-14.10 -8.05L-13.42 -9.34L-12.62 -10.54L-11.69 -11.66L-10.65 -12.66L-9.52 -13.54L-8.31 -14.29L-7.03 -14.90L-5.71 -15.36L-4.35 -15.67L-2.98 -15.82L-1.61 -15.81Z" fill="#3f3f46"/><path d="M54.15 -5.57L54.15 -5.57L54.15 -5.57L55.40 -5.26L56.61 -4.80L57.76 -4.19L58.83 -3.45L59.82 -2.59L60.70 -1.60L61.48 -0.52L62.13 0.66L62.66 1.91L63.05 3.23L63.30 4.58L63.41 5.97L63.37 7.36L63.19 8.75L62.89 10.37L62.58 12.00L62.26 13.62L61.94 15.24L61.62 16.87L61.29 18.49L60.95 20.10L60.61 21.72L60.26 23.34L59.91 24.95L59.55 26.56L59.19 28.17L58.81 29.51L58.29 30.81L57.64 32.06L56.87 33.23L55.99 34.31L55.01 35.29L53.94 36.16L52.79 36.90L51.58 37.51L50.33 37.98L49.05 38.30L47.75 38.48L46.45 38.50L45.16 38.36L45.16 38.36L45.16 38.36L43.91 38.08L42.71 37.64L41.56 37.07L40.49 36.35L39.52 35.51L38.64 34.55L37.87 33.48L37.23 32.32L36.72 31.08L36.35 29.78L36.12 28.43L36.04 27.05L36.11 25.66L36.33 24.27L36.68 22.64L37.02 21.02L37.36 19.38L37.69 17.75L38.03 16.12L38.36 14.48L38.69 12.84L39.02 11.20L39.35 9.57L39.68 7.93L40.00 6.29L40.32 4.65L40.66 3.28L41.14 1.95L41.76 0.68L42.51 -0.51L43.37 -1.60L44.34 -2.59L45.39 -3.46L46.53 -4.21L47.73 -4.81L48.98 -5.27L50.26 -5.58L51.56 -5.73L52.86 -5.73Z" fill="#3f3f46"/></g>
</svg>
